#!OML:ASF F:\VICON\USERDATA\INSTALL\rory3\rory3.ASF
:FULLY-SPECIFIED
:DEGREES
80
root 0.17648 18.2569 -13.3204 -2.15416 -0.636055 -5.09186
lowerback 9.87796 -0.264409 3.23957
upperback 0.55823 0.162297 2.93701
thorax -4.96404 0.0392751 1.21838
lowerneck -15.9293 -3.09617 -1.74276
upperneck 23.6287 -3.77517 -0.458824
head 10.1956 -1.95256 -0.374548
rclavicle -5.7896e-015 -1.35174e-014
rhumerus -29.1194 -18.7191 -75.2018
rradius 23.857
rwrist 3.79923
rhand -15.4575 16.435
rfingers 7.12502
rthumb 10.7234 -13.2714
lclavicle -5.7896e-015 -1.35174e-014
lhumerus -31.239 -0.439104 85.1497
lradius 27.3091
lwrist 5.03477
lhand -25.5407 30.0595
lfingers 7.12502
lthumb 0.989343 60.037
rfemur -11.7481 4.40777 30.7592
rtibia 26.6698
rfoot -11.2415 -4.66199
rtoes 5.80611
lfemur -15.3504 1.02812 -15.0498
ltibia 68.1095
lfoot 2.78567 -5.66333
ltoes -10.1417
81
root 0.172709 18.2478 -13.1678 -2.2559 -1.0629 -5.06651
lowerback 10.1975 -0.0381518 3.30071
upperback 0.518733 0.481706 2.79715
thorax -5.18199 0.191535 0.99402
lowerneck -15.9308 -3.10501 -1.59287
upperneck 23.7293 -3.8436 -0.403232
head 10.2302 -1.96356 -0.390346
rclavicle 2.93207e-015 -2.26615e-014
rhumerus -28.7982 -18.3836 -75.4431
rradius 24.3711
rwrist 3.68311
rhand -14.6178 15.3003
rfingers 7.12502
rthumb 11.5334 -14.3624
lclavicle 2.93207e-015 -2.26615e-014
lhumerus -31.4557 -0.579064 85.0672
lradius 27.2641
lwrist 4.71038
lhand -24.9167 33.2791
lfingers 7.12502
lthumb 1.59203 63.2529
rfemur -11.0266 4.56933 30.7955
rtibia 26.7442
rfoot -11.509 -4.3396
rtoes 8.35665
lfemur -16.1776 1.42208 -15.0843
ltibia 68.1563
lfoot 0.790137 -4.54441
ltoes -5.15616
82
root 0.16341 18.2511 -13.0156 -2.2744 -1.28795 -5.31683
lowerback 10.3837 0.133141 3.5749
upperback 0.486732 0.752288 2.78012
thorax -5.31485 0.316356 0.782919
lowerneck -15.76 -3.22234 -1.60912
upperneck 23.6033 -4.03874 -0.277081
head 10.1565 -2.0406 -0.364645
rclavicle 1.963e-015 7.55382e-015
rhumerus -28.5591 -17.9024 -75.6545
rradius 25.3734
rwrist 3.89223
rhand -14.7862 16.1063
rfingers 7.12502
rthumb 11.3709 -13.5654
lclavicle 1.963e-015 7.55382e-015
lhumerus -31.5548 -0.919273 85.2197
lradius 26.7617
lwrist 5.94722
lhand -26.3968 29.632
lfingers 7.12502
lthumb 0.162548 59.6117
rfemur -10.5153 4.84241 31.1345
rtibia 27.0652
rfoot -12.377 -4.56764
rtoes 10.4944
lfemur -17.2903 1.59129 -14.7716
ltibia 67.957
lfoot -0.325839 -3.87061
ltoes -3.13622
83
root 0.153536 18.2438 -12.8674 -2.27043 -1.45475 -5.57797
lowerback 10.634 0.209447 3.78664
upperback 0.434107 0.898799 2.82729
thorax -5.50695 0.380948 0.691265
lowerneck -15.6058 -3.3008 -1.63305
upperneck 23.4703 -4.12353 -0.355395
head 10.0785 -2.0921 -0.394744
rclavicle -6.44808e-015 -3.22031e-014
rhumerus -28.1155 -17.1806 -75.9451
rradius 25.9448
rwrist 3.68646
rhand -15.3815 17.2964
rfingers 7.12502
rthumb 10.7967 -12.4061
lclavicle -6.44808e-015 -3.22031e-014
lhumerus -31.7741 -0.526139 85.0635
lradius 26.6783
lwrist 5.4594
lhand -25.3011 31.6787
lfingers 7.12502
lthumb 1.2208 61.6549
rfemur -10.2344 4.82423 31.5168
rtibia 27.3522
rfoot -12.7497 -4.89358
rtoes 10.437
lfemur -18.492 1.7594 -14.4292
ltibia 67.5933
lfoot -1.34922 -3.74795
ltoes -5.66946
84
root 0.152189 18.2192 -12.7173 -2.30265 -1.5505 -5.56984
lowerback 10.9512 0.226919 3.80757
upperback 0.304552 0.948388 2.80107
thorax -5.82053 0.399365 0.643796
lowerneck -15.5554 -3.29163 -1.68959
upperneck 23.5434 -4.08474 -0.40412
head 10.0953 -2.08515 -0.397277
rclavicle 1.16786e-015 -7.95139e-016
rhumerus -27.8203 -16.3702 -76.2076
rradius 26.2411
rwrist 2.61885
rhand -15.1723 16.0982
rfingers 7.12502
rthumb 10.9986 -13.5937
lclavicle 1.16786e-015 -7.95139e-016
lhumerus -32.4365 -0.240827 85.0178
lradius 26.695
lwrist 5.65926
lhand -24.8834 30.4731
lfingers 7.12502
lthumb 1.6242 60.4467
rfemur -9.86865 4.44623 31.6048
rtibia 27.4709
rfoot -12.9117 -4.90927
rtoes 7.261
lfemur -19.5349 1.79741 -14.4545
ltibia 67.1064
lfoot -2.49221 -3.43104
ltoes -9.48848
85
root 0.152304 18.2087 -12.5454 -2.32404 -1.70433 -5.48793
lowerback 10.8412 0.329465 3.844
upperback 0.412815 1.07071 2.6905
thorax -5.63933 0.460159 0.488342
lowerneck -15.984 -3.27744 -1.6774
upperneck 23.6296 -4.0879 -0.295152
head 10.2104 -2.07019 -0.370849
rclavicle -3.14328e-015 -2.127e-014
rhumerus -27.1544 -15.7019 -76.6375
rradius 26.2522
rwrist 0.656091
rhand -15.1972 13.1426
rfingers 7.12502
rthumb 10.9746 -16.5506
lclavicle -3.14328e-015 -2.127e-014
lhumerus -32.6448 -0.305153 85.0942
lradius 26.6913
lwrist 6.12282
lhand -25.7983 29.583
lfingers 7.12502
lthumb 0.740544 59.5614
rfemur -9.2511 4.27542 31.5837
rtibia 27.5531
rfoot -13.4606 -4.77275
rtoes 7.48576
lfemur -20.254 1.79264 -14.5688
ltibia 66.395
lfoot -3.0155 -2.55254
ltoes -10.8688
86
root 0.151519 18.2052 -12.3729 -2.33011 -1.90317 -5.66017
lowerback 10.7589 0.470154 4.13674
upperback 0.512611 1.27932 2.61779
thorax -5.47601 0.557401 0.216552
lowerneck -16.2341 -3.29545 -1.60332
upperneck 23.5812 -4.15139 -0.202826
head 10.2414 -2.08033 -0.363398
rclavicle -8.90804e-015 5.76476e-015
rhumerus -26.6516 -14.7421 -77.2083
rradius 26.3571
rwrist -2.35314
rhand -16.8546 16.728
rfingers 7.12502
rthumb 9.37562 -13.0435
lclavicle -8.90804e-015 5.76476e-015
lhumerus -32.6832 -0.607358 85.1826
lradius 26.5241
lwrist 6.4496
lhand -26.3985 29.7668
lfingers 7.12502
lthumb 0.16086 59.7465
rfemur -8.5736 4.15014 31.7902
rtibia 27.6335
rfoot -14.09 -4.46582
rtoes 9.14933
lfemur -20.9617 1.83958 -14.3714
ltibia 65.5958
lfoot -3.48783 -1.55906
ltoes -8.51346
